HIERARCHY
ROOT root
{
	OFFSET	0	13.1	24.9
	CHANNELS 6  Xposition Yposition Zposition Xrotation Yrotation Zrotation
	JOINT spine_1
	{
		OFFSET	0	9.99999	0
		CHANNELS 3  Xrotation Yrotation Zrotation
		JOINT spine_2
		{
			OFFSET	0	112	-10
			CHANNELS 3  Xrotation Yrotation Zrotation
			JOINT spine_3
			{
				OFFSET	0	206.5	19.3
				CHANNELS 3  Xrotation Yrotation Zrotation
				JOINT spine_4
				{
					OFFSET	0	110.4	14.6
					CHANNELS 3  Xrotation Yrotation Zrotation
					JOINT neck_1
					{
						OFFSET	0	71.8	-50.3
						CHANNELS 3  Xrotation Yrotation Zrotation
						JOINT neck_2
						{
							OFFSET	0	86.2	-25.8
							CHANNELS 3  Xrotation Yrotation Zrotation
							JOINT head_ee
							{
								OFFSET	0	179.8	-8.7
								CHANNELS 3  Xrotation Yrotation Zrotation
								End Site
								{
									OFFSET	1	0	0
								}
							}
						}
					}
					JOINT left_clavicle
					{
						OFFSET	-43.2	22.4	-70.8
						CHANNELS 3  Xrotation Yrotation Zrotation
						JOINT left_shoulder
						{
							OFFSET	-93.9	-5.79999	48.7
							CHANNELS 3  Xrotation Yrotation Zrotation
							JOINT left_elbow
							{
								OFFSET	-291.4	-30.8	15.2
								CHANNELS 3  Xrotation Yrotation Zrotation
								JOINT left_lowarm_twist
								{
									OFFSET	-110.7	-3.89999	13.6
									CHANNELS 3  Xrotation Yrotation Zrotation
									JOINT left_hand
									{
										OFFSET	-110.7	-3.89999	13.6
										CHANNELS 3  Xrotation Yrotation Zrotation
										JOINT left_ee
										{
											OFFSET	-80.8	-5.10001	12.1
											CHANNELS 3  Xrotation Yrotation Zrotation
											End Site
											{
												OFFSET	1	0	0
											}
										}
									}
								}
							}
						}
					}
					JOINT right_clavicle
					{
						OFFSET	43.2	22.4	-70.8
						CHANNELS 3  Xrotation Yrotation Zrotation
						JOINT right_shoulder
						{
							OFFSET	93.9	-5.79999	48.7
							CHANNELS 3  Xrotation Yrotation Zrotation
							JOINT right_elbow
							{
								OFFSET	291.4	-30.8	15.2
								CHANNELS 3  Xrotation Yrotation Zrotation
								JOINT right_lowarm_twist
								{
									OFFSET	110.7	-3.89999	13.6
									CHANNELS 3  Xrotation Yrotation Zrotation
									JOINT right_hand
									{
										OFFSET	110.7	-3.89999	13.6
										CHANNELS 3  Xrotation Yrotation Zrotation
										JOINT right_ee
										{
											OFFSET	80.8	-5.10001	12.1
											CHANNELS 3  Xrotation Yrotation Zrotation
											End Site
											{
												OFFSET	1	0	0
											}
										}
									}
								}
							}
						}
					}
				}
			}
		}
	}
	JOINT left_hip
	{
		OFFSET	-82.8	-127.5	0.300001
		CHANNELS 3  Xrotation Yrotation Zrotation
		JOINT left_knee
		{
			OFFSET	-28.2	-396.7	2.2
			CHANNELS 3  Xrotation Yrotation Zrotation
			JOINT left_ankle
			{
				OFFSET	-11.7	-411.3	35.4
				CHANNELS 3  Xrotation Yrotation Zrotation
				JOINT left_toes
				{
					OFFSET	0	-60	-88.6
					CHANNELS 3  Xrotation Yrotation Zrotation
					JOINT left_foot_ee
					{
						OFFSET	-22.5	-16.5	-42.2
						CHANNELS 3  Xrotation Yrotation Zrotation
						End Site
						{
							OFFSET	1	0	0
						}
					}
				}
			}
		}
	}
	JOINT right_hip
	{
		OFFSET	82.8	-127.5	0.300001
		CHANNELS 3  Xrotation Yrotation Zrotation
		JOINT right_knee
		{
			OFFSET	28.2	-396.7	2.2
			CHANNELS 3  Xrotation Yrotation Zrotation
			JOINT right_ankle
			{
				OFFSET	11.7	-411.3	35.4
				CHANNELS 3  Xrotation Yrotation Zrotation
				JOINT right_toes
				{
					OFFSET	0	-60	-88.6
					CHANNELS 3  Xrotation Yrotation Zrotation
					JOINT right_foot_ee
					{
						OFFSET	22.5	-16.5	-42.2
						CHANNELS 3  Xrotation Yrotation Zrotation
						End Site
						{
							OFFSET	1	0	0
						}
					}
				}
			}
		}
	}
}
MOTION
Frames: 5
Frame Time: 0.02
1054.41 750.215 -660.206 173.03 -73.7877 179.426 -1.23416 -0.0239234 -1.6257 -1.2327 0.0795587 -1.62393 -1.23394 0.452947 -1.56152 -1.23729 0.200683 -1.61345 -5.17774 8.5057 0.921632 -5.1351 14.9716 2.43101 -0.0 0.0 -0.0 5.20777 16.0887 10.1397 -1.41825 -55.5232 49.6074 0.874791 -23.4291 0.181395 -77.7751 -7.53896 5.30417 -1.64119 23.2673 -0.173401 -0.0 0.0 -0.0 8.70137 27.0743 -15.8593 -21.0358 8.23677 -56.8938 1.20225 30.7752 -0.330887 6.10864 -0.174826 0.760341 -1.24357 -2.72274 7.1113 0.0 0.0 0.0 5.69784 15.3424 -3.23819 -11.8306 0.303529 1.78701 23.4586 16.1656 -3.19242 -3.703 0.0 0.0 -0.0 0.0 -0.0 33.8697 16.0545 -15.5572 -53.3673 1.52791 -7.75544 -18.8988 -26.6595 -2.98519 -38.4883 0.0 0.0 0.0 0.0 0.0 
1073.09 746.115 -661.066 173.291 -73.7334 179.994 -1.01311 -0.0581471 -1.56163 -1.01176 0.0413292 -1.56217 -1.01198 0.395597 -1.51183 -1.01514 0.151898 -1.55532 -4.87401 8.94502 0.938178 -4.81918 15.7382 2.48775 -0.0 0.0 -0.0 5.12283 16.1689 10.0017 -0.533892 -55.7035 48.2134 0.966189 -25.5763 0.219308 -78.8843 -7.68012 5.29338 -2.06366 24.3763 -2.05415 -0.0 0.0 -0.0 8.30511 25.889 -15.1096 -22.3747 7.3565 -58.013 1.13995 29.4524 -0.299626 6.39309 -0.180981 0.796156 -1.1198 -2.5912 6.3445 0.0 0.0 0.0 4.58337 15.38 -2.9183 -11.861 0.30383 1.79165 22.9061 15.8862 -3.12291 -3.63476 0.0 0.0 -0.0 0.0 -0.0 33.5347 15.3375 -15.2618 -52.27 1.42556 -7.62087 -18.6132 -27.3807 -2.95192 -38.9221 0.0 0.0 0.0 0.0 0.0 
1088.06 745.487 -661.987 172.732 -73.2593 179.869 -0.89228 -0.0974271 -1.60328 -0.89085 0.00477789 -1.60623 -0.890034 0.366691 -1.56383 -0.893429 0.115144 -1.60211 -5.02739 9.45696 0.686904 -4.96825 16.8856 2.3397 -0.0 0.0 -0.0 4.95828 18.0441 9.7057 -0.317634 -54.3005 46.5051 1.24362 -31.634 0.352322 -81.875 -8.0592 5.25057 -2.93361 27.4961 -5.28692 -0.0 0.0 -0.0 8.03962 24.4559 -14.6673 -23.8407 6.24144 -59.42 1.03353 27.111 -0.249195 6.29609 -0.178902 0.78394 -1.33159 -3.94118 7.14713 0.0 0.0 0.0 2.47952 15.6316 -2.5101 -9.66353 0.275663 1.45567 21.2002 13.5272 -2.897 -3.8856 0.0 0.0 -0.0 0.0 -0.0 35.4295 14.8573 -14.1701 -50.5954 1.27442 -7.41185 -19.5505 -25.5391 -3.07018 -39.7292 0.0 0.0 0.0 0.0 0.0 
1102.86 747.138 -659.109 170.695 -73.2146 177.402 -0.891917 -0.202815 -1.59188 -0.890513 -0.101122 -1.60156 -0.886642 0.262329 -1.58316 -0.89014 0.00903893 -1.60472 -5.13477 9.82442 0.531285 -5.07277 17.6907 2.26031 -0.0 0.0 -0.0 4.89098 19.3671 9.57469 0.486632 -53.3587 46.3589 1.46067 -35.8862 0.473018 -83.973 -8.32331 5.20865 -3.55448 29.4918 -7.51307 -0.0 0.0 -0.0 7.88362 23.4451 -14.4192 -24.809 5.28287 -60.5626 0.961044 25.4574 -0.217091 6.24498 -0.177798 0.777504 -1.48921 -5.02336 7.69918 0.0 0.0 0.0 -0.243949 16.0696 -1.83189 -8.12665 0.248315 1.22143 20.0721 11.8633 -2.74903 -4.06394 0.0 0.0 -0.0 0.0 -0.0 37.0131 14.4986 -13.4828 -47.4757 1.0095 -7.01123 -20.0763 -24.2483 -3.13285 -40.219 0.0 0.0 0.0 0.0 0.0 
1117.13 751.318 -656.014 170.484 -73.2692 177.182 -0.906428 -0.305404 -1.59791 -0.90503 -0.203119 -1.6141 -0.898154 0.166067 -1.61833 -0.901798 -0.0915669 -1.62425 -5.26035 10.1003 0.499633 -5.19861 18.2367 2.29501 -0.0 0.0 -0.0 4.84528 20.2776 9.48533 1.25546 -52.6145 45.9179 1.62763 -38.8755 0.574416 -85.4034 -8.50232 5.17449 -3.97961 30.6631 -9.06367 -0.0 0.0 -0.0 7.74887 22.4433 -14.2134 -25.8216 4.55598 -61.8242 0.905371 24.1557 -0.193732 6.23258 -0.17753 0.775944 -1.59877 -5.86199 8.03695 0.0 0.0 0.0 -2.2238 16.3682 -1.30972 -7.07145 0.225903 1.06106 19.3075 10.6949 -2.64945 -4.17832 0.0 0.0 -0.0 0.0 -0.0 38.6746 14.1343 -13.0527 -44.3089 0.763398 -6.59067 -20.3865 -23.3229 -3.1678 -40.4638 0.0 0.0 0.0 0.0 0.0 
